<?xml version="1.0" standalone="no"?>
<!DOCTYPE svg PUBLIC "-//W3C//DTD SVG 20010904//EN"
 "http://www.w3.org/TR/2001/REC-SVG-20010904/DTD/svg10.dtd">
<svg version="1.0" xmlns="http://www.w3.org/2000/svg"
 width="116.000000pt" height="116.000000pt" viewBox="0 0 116.000000 116.000000"
 preserveAspectRatio="xMidYMid meet">
<metadata>
Created by potrace 1.11, written by Peter Selinger 2001-2013
</metadata>
<g transform="translate(0.000000,116.000000) scale(0.100000,-0.100000)"
fill="#000000" stroke="none">
<path d="M332 1152 c-52 -2 -63 -6 -58 -18 3 -9 6 -18 6 -20 0 -2 13 -4 30 -4
l29 0 3 -92 c3 -79 6 -93 21 -96 15 -3 17 6 17 92 0 103 1 104 58 97 6 -1 12
7 12 17 0 23 -26 28 -118 24z"/>
<path d="M723 1152 l-33 -3 0 -114 0 -113 75 1 c53 0 76 4 79 14 7 17 -15 26
-68 27 -37 1 -41 4 -44 29 -3 27 -2 28 37 26 46 -3 56 3 47 26 -4 11 -16 16
-33 15 -47 -3 -53 -1 -53 25 0 17 6 25 18 26 9 0 35 1 56 2 28 2 40 7 41 19 2
13 -7 17 -44 20 -25 1 -61 2 -78 0z"/>
<path d="M477 1043 c1 -60 2 -111 2 -115 1 -4 9 -6 19 -5 15 1 18 9 18 46 l-1
46 47 3 47 3 3 -48 c2 -36 7 -49 21 -51 15 -3 17 7 17 112 0 109 -1 116 -20
116 -17 0 -20 -7 -20 -43 0 -24 -2 -46 -4 -48 -3 -2 -24 -3 -48 -1 l-44 4 2
44 c2 39 0 44 -19 44 -21 0 -22 -3 -20 -107z"/>
<path d="M578 885 c-2 -2 -25 -5 -53 -8 -207 -23 -367 -196 -379 -409 -14
-250 180 -457 430 -459 159 -1 296 75 378 210 51 83 84 249 58 287 -5 7 -91
10 -254 11 l-246 0 -16 -63 c-9 -35 -16 -68 -16 -74 0 -6 65 -10 190 -10 125
0 190 -4 190 -10 0 -22 -41 -91 -74 -123 -57 -57 -119 -82 -206 -81 -57 0 -86
6 -122 23 -136 66 -200 222 -151 366 23 68 102 146 173 173 95 35 206 18 277
-42 l30 -25 52 53 53 54 -47 35 c-54 42 -131 73 -210 85 -30 5 -56 8 -57 7z"/>
</g>
</svg>
